<svg width="430" height="430" viewBox="0 0 430 430" fill="none" xmlns="http://www.w3.org/2000/svg">
<path d="M18.9341 237.716C107.603 253.136 177.649 322.784 193.686 411.267C195.652 422.134 205.171 430.102 216.138 429.999C216.449 429.999 216.862 429.999 217.173 429.999C228.14 429.896 237.555 422.03 239.521 411.267C255.351 323.715 324.052 254.585 411.376 238.13C422.137 236.06 429.897 226.643 430 215.776V214.224C430 203.254 422.137 193.836 411.376 191.87C324.052 175.415 255.455 106.285 239.521 18.7326C237.555 7.96969 228.14 0.104486 217.173 0.000996455H216.138C205.067 -0.102493 195.652 7.8662 193.686 18.7326C177.649 107.216 107.603 176.864 18.9341 192.284C8.07028 194.147 0 203.668 0 214.741V215.259C0 226.332 7.96681 235.853 18.9341 237.716Z" fill="white"/>
</svg>